<?xml version="1.0" encoding="utf-8"?>
<!-- Generator: Adobe Illustrator 17.1.0, SVG Export Plug-In . SVG Version: 6.00 Build 0)  -->
<!DOCTYPE svg PUBLIC "-//W3C//DTD SVG 1.1//EN" "http://www.w3.org/Graphics/SVG/1.1/DTD/svg11.dtd">
<svg version="1.1" id="Layer_1" xmlns="http://www.w3.org/2000/svg" xmlns:xlink="http://www.w3.org/1999/xlink" x="0px" y="0px"
	 viewBox="-5.5 158.4 211 63.8" enable-background="new -5.5 158.4 211 63.8" xml:space="preserve">
<g>
	<path fill="#D5D5D5" d="M45.4,188c0,11.7-9.6,21.1-21.4,21.1c-11.8,0-21.4-9.5-21.4-21.1c0-11.7,9.6-21.1,21.4-21.1
		C35.9,166.8,45.4,176.3,45.4,188z"/>
	<g>
		<path fill="#F3DD21" d="M24.5,167c1.7-0.2,3.7,0.1,5.6,0.7c2.7,0.9,5.3,2.1,7.5,4c1.7,1.4,3.1,3,4.3,4.9c1.5,2.4,2.7,4.9,3,7.7
			c0.4,3.3,0.5,6.6-0.5,9.8c-0.7,2.2-1.7,4.3-3.1,6.2c-2.2,3.1-5.1,5.4-8.6,7c-1.6,0.7-3.3,1.1-4.9,1.8c-1.8,0.8-2.4,1.6-2.2,3.6
			c0.1,0.7-0.1,1.3,0.2,2c0,0.1,0,0.4-0.1,0.4c-0.2,0.1-0.4,0-0.5-0.1c-0.3-0.2-0.6-0.4-0.8-0.7c-1.1-1.4-2.2-2.9-3.4-4.3
			c-0.7-0.8-1.4-1.4-2.5-1.7c-2.8-0.7-5.3-2.1-7.6-3.9c-2.6-2.1-4.5-4.6-5.9-7.5c-1.1-2.3-1.8-4.7-1.8-7.3c0-1.8-0.2-3.6,0.1-5.4
			c0.6-3.7,2.2-6.9,4.5-9.8c1.8-2.2,4-4,6.6-5.3C17.4,167.8,19.7,166.8,24.5,167z M24.1,206.8c10.6,0.1,18.6-8.5,18.8-18.3
			c0.1-10.9-8.3-19.1-18.5-19.2c-10.8-0.1-18.6,8.3-19,18C4.9,198.3,13.9,207,24.1,206.8z"/>
		<path fill="#FFFFFF" d="M24.1,206.8c-10.1,0.2-19.2-8.5-18.7-19.5c0.4-9.7,8.2-18.1,19-18c10.2,0.1,18.6,8.2,18.5,19.2
			C42.7,198.3,34.6,206.9,24.1,206.8z M23.9,176.7c-0.1,0-0.2,0-0.2,0.1c-0.6,0.5-1,1.2-1.6,1.8c-0.8,0.8-1,1.7-0.8,2.7
			c0.1,0.8,0.5,1.5,0.8,2.2c0.4,1.1,0.7,2.3,1.4,3.3c0.4,0.7,1.1,1,1.9,1.1c1.5,0.2,3,0.4,4.4,0.7c1,0.2,1.8-0.2,2.5-0.9
			c0.9-0.9,1.6-1.8,2.3-2.8c0.5-0.6,1.2-1.1,1.3-2c0.4-0.4,0.3-0.9,0.2-1.3c-0.5-1.3-0.9-2.6-1.5-3.8c-0.3-1.4-0.9-2.5-2.5-2.8
			c-1.3-0.2-2.6-0.4-4-0.6C25.9,174.2,24.9,174.7,23.9,176.7L23.9,176.7z M7.5,186.4c0,0.4,0.1,0.8,0.2,1.2c0.5,1.3,1,2.6,1.5,4
			c0.4,1.2,1.2,1.9,2.4,2c1.4,0.2,2.8,0.3,4.1,0.7c1.2,0.3,2.1-0.1,2.9-1c1.1-1.2,2.1-2.5,3.1-3.8c0.6-0.7,0.7-1.6,0.4-2.5
			c-0.6-1.5-1.1-3-1.7-4.5c-0.4-1-1.1-1.6-2.2-1.8c-1.4-0.2-2.7-0.5-4.1-0.7c-1.4-0.2-2.6,0.1-3.4,1.3c-0.8,1.1-1.7,2.2-2.6,3.3
			C7.7,185.2,7.4,185.7,7.5,186.4z M28.3,203.1c0.9-0.1,1.6-0.4,2-1c1.1-1.3,2.2-2.7,3.2-4c0.5-0.6,0.8-1.4,0.5-2.2
			c-0.6-1.5-1.2-3-1.8-4.5c-0.4-1.2-1.3-1.9-2.5-2c-1.4-0.2-2.8-0.4-4.2-0.7c-1.1-0.2-1.9,0.1-2.6,0.9c-1.1,1.3-2.1,2.6-3.1,3.9
			c-0.5,0.7-0.8,1.5-0.4,2.3c0.6,1.6,1.2,3.2,1.8,4.7c0.3,0.7,0.8,1.3,1.6,1.5C24.6,202.5,26.5,202.6,28.3,203.1z"/>
		<path d="M7.5,186.4c0-0.7,0.2-1.2,0.6-1.7c0.9-1.1,1.8-2.1,2.6-3.3c0.9-1.2,2-1.6,3.4-1.3c1.4,0.2,2.7,0.5,4.1,0.7
			c1.1,0.2,1.8,0.8,2.2,1.8c0.6,1.5,1.2,3,1.7,4.5c0.3,0.9,0.2,1.7-0.4,2.5c-1,1.3-2,2.6-3.1,3.8c-0.7,0.8-1.6,1.3-2.9,1
			c-1.3-0.3-2.7-0.5-4.1-0.7c-1.2-0.2-2-0.9-2.4-2c-0.5-1.3-1-2.7-1.5-4C7.5,187.2,7.4,186.8,7.5,186.4z"/>
		<path fill="#F3DD21" d="M28.3,203.1c-1.8-0.5-3.7-0.6-5.5-1c-0.8-0.2-1.3-0.8-1.6-1.5c-0.6-1.6-1.2-3.2-1.8-4.7
			c-0.3-0.9-0.1-1.7,0.4-2.3c1-1.3,2.1-2.6,3.1-3.9c0.7-0.8,1.5-1.1,2.6-0.9c1.4,0.3,2.8,0.5,4.2,0.7c1.3,0.2,2.1,0.8,2.5,2
			c0.6,1.5,1.2,3,1.8,4.5c0.3,0.8,0,1.6-0.5,2.2c-1,1.4-2.1,2.7-3.2,4C29.9,202.7,29.2,203,28.3,203.1z"/>
		<path d="M21.3,181.3c-0.2-1,0.1-1.9,0.8-2.7c0.6-0.6,1-1.3,1.6-1.8c0.1,0,0.2,0,0.2-0.1l0,0c0.2,0.1,0.5,0,0.7-0.1
			c1.5-0.5,3-0.5,4.6-0.4c1.9,0.1,3.6,0.8,5.3,1.7c0.7,1.2,1,2.5,1.5,3.8c0.2,0.4,0.2,0.9-0.2,1.3c-1-0.7-2.2-1.2-3.4-1.7
			C28.8,180,25.1,180.1,21.3,181.3z"/>
		<path d="M23.5,186.8c-0.7-1-1-2.2-1.4-3.3c4.4-1.5,8.5-0.8,12.4,1.4c-0.7,1-1.4,2-2.3,2.8C29.5,186.6,26.5,186.3,23.5,186.8z"/>
		<path fill="#F3DD21" d="M34.6,184.9c-3.9-2.2-8.1-3-12.4-1.4c-0.3-0.7-0.7-1.4-0.8-2.2c3.7-1.3,7.5-1.3,11.2,0
			c1.2,0.4,2.3,0.9,3.4,1.7C35.8,183.8,35.1,184.3,34.6,184.9z"/>
		<path fill="#F3DD21" d="M34.5,177.9c-1.7-0.9-3.4-1.5-5.3-1.7c-1.6-0.1-3.1,0-4.6,0.4c-0.2,0.1-0.5,0.2-0.7,0.1c1-2,2-2.5,4.1-2.2
			c1.3,0.2,2.7,0.4,4,0.6C33.6,175.4,34.2,176.5,34.5,177.9z"/>
		<path fill="#F3DD21" d="M23.5,186.8c3-0.5,5.9-0.2,8.8,0.9c-0.7,0.8-1.5,1.1-2.5,0.9c-1.5-0.3-2.9-0.5-4.4-0.7
			C24.6,187.8,24,187.5,23.5,186.8z"/>
		<path fill="#CFCFCF" d="M23.9,176.7c0,0.1-0.1,0.1-0.2,0.1C23.7,176.7,23.8,176.7,23.9,176.7z"/>
	</g>
	<g>
		<path fill="#F3DD21" d="M50.7,187.7h0.1c0.4-0.5,0.9-0.9,1.4-1.2c0.5-0.3,1.1-0.4,1.8-0.4c0.8,0,1.6,0.2,2.2,0.5
			c0.6,0.3,1.1,0.7,1.5,1.2c0.4,0.5,0.7,1.1,0.9,1.8c0.2,0.7,0.3,1.4,0.3,2.1v0.5c0,1.9-0.5,3.4-1.5,4.4c-1,1-2.5,1.5-4.4,1.5
			c-0.4,0-0.8,0-1.2,0c-0.4,0-0.8-0.1-1.3-0.2c-0.4-0.1-0.8-0.2-1.2-0.3c-0.4-0.1-0.8-0.2-1.1-0.4v-15.1l2.5-0.7L50.7,187.7z
			 M50.7,191v4.4c0.4,0.2,0.7,0.3,1.1,0.3c0.4,0.1,0.8,0.1,1.2,0.1c0.7,0,1.2-0.1,1.6-0.2c0.4-0.1,0.8-0.4,1-0.6
			c0.3-0.3,0.4-0.7,0.5-1.1s0.2-1,0.2-1.6V192c0-0.4,0-0.8-0.1-1.3c0-0.4-0.1-0.8-0.3-1.2c-0.1-0.3-0.4-0.6-0.7-0.9
			c-0.3-0.2-0.7-0.3-1.3-0.3c-0.8,0-1.6,0.2-2.2,0.7C51.3,189.5,50.9,190.2,50.7,191z"/>
		<path fill="#F3DD21" d="M63.4,192.8c0,0.4,0.1,0.9,0.2,1.2c0.1,0.4,0.3,0.7,0.6,1c0.3,0.3,0.6,0.5,1.1,0.6c0.4,0.2,1,0.2,1.7,0.2
			c0.6,0,1-0.1,1.4-0.3c0.3-0.2,0.7-0.4,1-0.8l2.1,0.9c-0.5,0.8-1.2,1.4-2,1.8c-0.8,0.4-1.7,0.6-2.6,0.6c-1.9,0-3.4-0.5-4.4-1.5
			c-1-1-1.5-2.5-1.5-4.4v-0.3c0-0.2,0-0.4,0-0.6c0-0.2,0-0.4,0-0.5c0-0.7,0.2-1.4,0.5-2c0.3-0.6,0.7-1.1,1.2-1.6
			c0.5-0.4,1.1-0.8,1.8-1c0.7-0.2,1.4-0.3,2.1-0.3c0.8,0,1.6,0.1,2.3,0.4c0.7,0.3,1.2,0.6,1.7,1.1c0.5,0.5,0.8,1.1,1.1,1.8
			c0.2,0.7,0.4,1.4,0.4,2.3v1.3C71.9,192.8,63.4,192.8,63.4,192.8z M63.4,190.6h6c0-0.4-0.1-0.7-0.2-1c-0.1-0.3-0.3-0.6-0.6-0.8
			c-0.3-0.2-0.6-0.4-0.9-0.5c-0.3-0.1-0.7-0.2-1.1-0.2c-0.4,0-0.8,0-1.1,0.1c-0.4,0.1-0.7,0.2-1,0.5c-0.3,0.2-0.5,0.5-0.7,0.8
			C63.5,189.8,63.4,190.2,63.4,190.6z"/>
	</g>
	<g>
		<path fill="#FFFFFF" d="M108.2,183.9c2.5,0,4.9-0.1,7.3,0c3.9,0.2,6.2,4,4.1,7c-0.5,0.8-1.4,1.3-2.3,2.1c0.4,0.7,0.9,1.5,1.5,2.2
			c0.5,0.8,1,1.6,1.7,2.6c-1.3,0-2.5,0-3.7,0c-0.5-0.7-1-1.5-1.5-2.3c-0.5-0.8-1.1-1.6-1.6-2.4c-0.8,0-1.5,0-2.3,0
			c0,1.6,0,3.1,0,4.7c-1.1,0-2,0-3.1,0C108.2,193.3,108.2,188.7,108.2,183.9z M111.4,190.5c1.3,0,2.6,0.1,3.8,0c1-0.1,1.9-1,2-1.9
			c0.1-0.8-0.8-1.9-1.8-2c-1.3-0.1-2.7,0-4,0C111.4,187.9,111.4,189.1,111.4,190.5z"/>
		<path fill="#FFFFFF" d="M86.5,190.6c-1.5,1.2-2.6,2.2-3.9,3.3c-1.3-1.1-2.5-2.1-4-3.3c0,2.6,0,4.9,0,7.2c-1.1,0-2.1,0-3.2,0
			c0-4.6,0-9.2,0-14.2c2.5,2.1,4.7,4.1,7.1,6.2c2.3-2,4.5-4,7-6.1c0,4.8,0,9.4,0,14.1c-0.9,0-1.9,0-3.1,0
			C86.5,195.6,86.5,193.3,86.5,190.6z"/>
		<path fill="#FFFFFF" d="M197.3,186.3c-0.7,0.7-1.4,1.3-2,1.9c-4-1.8-6.1-1.6-7.7,0.6c-1.1,1.4-1.1,3-0.1,4.4
			c1.4,1.9,3.8,2.4,6.5,1.3c0-0.5,0.1-1.2,0.1-1.9c-0.8-0.1-1.5-0.1-2.3-0.2c0-0.8,0-1.5,0-2.4c1.7,0,3.5,0,5.3,0c0,2,0,4,0,6
			c-2.7,2.7-8.3,2.6-11.2,0c-3.6-3.1-3.1-8.4,1-10.8c3.2-1.8,6.4-1.8,9.6,0.2C196.7,185.6,196.9,185.9,197.3,186.3z"/>
		<path fill="#FFFFFF" d="M172.7,197.9c-1.3,0-2.2,0-3.3,0c0-4.6,0-9.2,0-14.1c3.1,2.2,5.6,4.9,8.7,7.3c0-2.5,0-4.7,0-7.1
			c1.1,0,2.1,0,3.2,0c0,4.5,0,9.1,0,14.1c-2.9-2.5-5.6-4.9-8.6-7.5C172.7,193.2,172.7,195.4,172.7,197.9z"/>
		<path fill="#FFFFFF" d="M130.4,184c1.7,0,2.9,0,4.4,0c-2.3,2.4-4.3,4.6-6.5,6.9c2.1,2.2,4.1,4.4,6.4,6.9c-1.5,0-2.8,0-4.3,0
			c-1.5-1.4-3.1-2.9-4.8-4.5c0,1.5,0,3,0,4.6c-1.1,0-2.1,0-3.2,0c0-4.5,0-9.1,0-13.8c0.9,0,1.9,0,3.1,0c0,1.5,0,3,0,4.6
			C127.4,187,129,185.4,130.4,184z"/>
		<path fill="#FFFFFF" d="M146.9,195c0,1.1,0,1.9,0,2.8c-3.4,0-6.8,0-10.3,0c0-4.6,0-9.1,0-13.8c3.4,0,6.8,0,10.2,0
			c0,0.9,0,1.7,0,2.7c-2.3,0-4.5,0-6.9,0c0,1,0,1.9,0,3c1.8,0,3.5,0,5.4,0c0,0.9,0,1.6,0,2.5c-1.8,0-3.5,0-5.4,0c0,1,0,1.7,0,2.7
			C142.2,195,144.5,195,146.9,195z"/>
		<path fill="#FFFFFF" d="M95.6,195.7c-0.5,0.8-0.9,1.5-1.4,2.2c-1,0-2.1,0-3.3,0c2.6-4.7,5.2-9.3,8-14.3c2.9,4.8,5.3,9.4,7.9,14.2
			c-1.2,0-2.1,0-3.2,0c-0.4-0.7-0.9-1.4-1.4-2.1C100.1,195.7,97.9,195.7,95.6,195.7z M100.7,192.7c-0.6-1.1-1.1-2-1.8-3.2
			c-0.6,1.2-1.2,2.1-1.7,3.2C98.5,192.7,99.5,192.7,100.7,192.7z"/>
		<path fill="#FFFFFF" d="M156.5,186.7c0,3.9,0,7.5,0,11.1c-1.1,0-2,0-3.1,0c0-3.6,0-7.2,0-11c-1.7,0-3.2,0-4.9,0c0-1,0-1.9,0-2.8
			c4.2,0,8.4,0,12.8,0c0,0.8,0,1.6,0,2.7C159.8,186.7,158.3,186.7,156.5,186.7z"/>
		<path fill="#FFFFFF" d="M163.8,197.8c0-4.7,0-9.2,0-13.8c1,0,2,0,3,0c0,4.5,0,9.1,0,13.8C165.9,197.8,164.9,197.8,163.8,197.8z"/>
	</g>
</g>
</svg>
